<svg width="400" height="320" viewBox="0 0 400 320" fill="none" xmlns="http://www.w3.org/2000/svg">
  <defs>
    <linearGradient id="bg" x1="0" y1="0" x2="1" y2="1">
      <stop offset="0%" stop-color="#FFE0CC" />
      <stop offset="100%" stop-color="#FF9E7A" />
    </linearGradient>
    <linearGradient id="accent" x1="0" y1="0" x2="1" y2="1">
      <stop offset="0%" stop-color="#FF7A50" />
      <stop offset="100%" stop-color="#FFB347" />
    </linearGradient>
  </defs>
  <rect width="400" height="320" rx="40" fill="url(#bg)" />
  <circle cx="120" cy="130" r="60" fill="#fff" opacity="0.7" />
  <circle cx="270" cy="110" r="40" fill="#fff" opacity="0.5" />
  <path d="M140 230 C140 200 180 200 200 200 C220 200 260 200 260 230" stroke="#FF7A50" stroke-width="16" stroke-linecap="round" fill="none" />
  <path d="M120 130 C120 100 155 90 180 110" stroke="#FF7A50" stroke-width="12" stroke-linecap="round" fill="none" />
  <path d="M230 115 C250 95 285 110 290 140" stroke="#FF7A50" stroke-width="12" stroke-linecap="round" fill="none" opacity="0.8" />
  <circle cx="150" cy="140" r="10" fill="#333" />
  <circle cx="190" cy="140" r="10" fill="#333" />
  <circle cx="250" cy="140" r="8" fill="#333" opacity="0.6" />
  <rect x="90" y="250" width="220" height="30" rx="15" fill="url(#accent)" opacity="0.8" />
</svg>
